<?xml version="1.0" encoding="utf-8"?>
<!-- Generator: Adobe Illustrator 23.0.1, SVG Export Plug-In . SVG Version: 6.00 Build 0)  -->
<svg version="1.1" id="Capa_1" xmlns="http://www.w3.org/2000/svg" xmlns:xlink="http://www.w3.org/1999/xlink" x="0px" y="0px"
	 viewBox="0 0 225 225" style="enable-background:new 0 0 225 225;" xml:space="preserve">
<style type="text/css">
	.st0{filter:url(#shadow-16dp);}
	.st1{fill:#F44336;}
	.st2{fill:none;stroke:#000000;stroke-width:5;stroke-miterlimit:10;}
</style>
<filter  height="300%" id="shadow-16dp" width="200%" x="-50%" y="-100%">
	<feOffset  dy="16" in="SourceAlpha" result="offA"></feOffset>
	<feOffset  dy="6" in="SourceAlpha" result="offB"></feOffset>
	<feOffset  dy="8" in="SourceAlpha" result="offC"></feOffset>
	<feMorphology  in="offA" operator="dilate" radius="2" result="spreadA"></feMorphology>
	<feMorphology  in="offB" operator="dilate" radius="5" result="spreadB"></feMorphology>
	<feMorphology  in="offC" operator="erode" radius="5" result="spreadC"></feMorphology>
	<feGaussianBlur  in="spreadA" result="blurA" stdDeviation="12"></feGaussianBlur>
	<!-- 24px 2px -->
	<feGaussianBlur  in="spreadB" result="blurB" stdDeviation="15"></feGaussianBlur>
	<!-- 30px 5px -->
	<feGaussianBlur  in="spreadC" result="blurC" stdDeviation="5"></feGaussianBlur>
	<!-- 10px -5px -->
	<feFlood  flood-opacity="0.14" result="opA"></feFlood>
	<feFlood  flood-opacity="0.12" result="opB"></feFlood>
	<feFlood  flood-opacity="0.40" result="opC"></feFlood>
	<feComposite  in="opA" in2="blurA" operator="in" result="shA"></feComposite>
	<feComposite  in="opB" in2="blurB" operator="in" result="shB"></feComposite>
	<feComposite  in="opC" in2="blurC" operator="in" result="shC"></feComposite>
	<feMerge>
		<feMergeNode  in="shA"></feMergeNode>
		<feMergeNode  in="shB"></feMergeNode>
		<feMergeNode  in="shC"></feMergeNode>
		<feMergeNode  in="SourceGraphic"></feMergeNode>
	</feMerge>
</filter>
<g class="st0">
	<path class="st1" d="M193.3,81.6c-2.4-26.1-20.8-45-43.9-45c-15.4,0-29.5,8.3-37.4,21.5c-7.9-13.4-21.4-21.6-36.5-21.6
		c-23.1,0-41.5,18.9-43.9,45c-0.2,1.2-1,7.2,1.4,17.1c3.4,14.3,11.1,27.2,22.5,37.5l56.5,51.3l57.5-51.3
		c11.3-10.3,19.1-23.2,22.5-37.5C194.3,88.8,193.5,82.8,193.3,81.6z M81.3,61.9c-13.8,0-25,11.2-25,25c0,1.7-1.4,3.1-3.1,3.1
		c-1.7,0-3.1-1.4-3.1-3.1c0-17.2,14-31.2,31.2-31.2c1.7,0,3.1,1.4,3.1,3.1S83,61.9,81.3,61.9z"/>
	<path class="st2" d="M193.3,81.6c-2.4-26.1-20.8-45-43.9-45c-15.4,0-29.5,8.3-37.4,21.5c-7.9-13.4-21.4-21.6-36.5-21.6
		c-23.1,0-41.5,18.9-43.9,45c-0.2,1.2-1,7.2,1.4,17.1c3.4,14.3,11.1,27.2,22.5,37.5l56.5,51.3l57.5-51.3
		c11.3-10.3,19.1-23.2,22.5-37.5C194.3,88.8,193.5,82.8,193.3,81.6z M81.3,61.9c-13.8,0-25,11.2-25,25c0,1.7-1.4,3.1-3.1,3.1
		c-1.7,0-3.1-1.4-3.1-3.1c0-17.2,14-31.2,31.2-31.2c1.7,0,3.1,1.4,3.1,3.1S83,61.9,81.3,61.9z"/>
</g>
</svg>
