<?xml version="1.0" encoding="utf-8"?>
<!-- Generator: Adobe Illustrator 23.0.1, SVG Export Plug-In . SVG Version: 6.00 Build 0)  -->
<svg version="1.1" id="Capa_1" xmlns="http://www.w3.org/2000/svg" xmlns:xlink="http://www.w3.org/1999/xlink" x="0px" y="0px"
	 viewBox="0 0 537 505.4" style="enable-background:new 0 0 537 505.4;" xml:space="preserve">
<style type="text/css">
	.st0{filter:url(#shadow-16dp_1_);}
	.st1{fill:#F04366;}
	.st2{fill:none;stroke:#000000;stroke-width:13;stroke-miterlimit:10;}
</style>
<g class="st0">
	<path class="st1" d="M523.7,154.5c-7.5-82.3-65.7-142-138.6-142c-48.5,0-93,26.1-118,68c-24.8-42.4-67.4-68-115.2-68
		C79,12.5,20.8,72.2,13.3,154.4c-0.6,3.6-3,22.8,4.4,53.9c10.6,45,35.1,85.9,70.9,118.3L267,488.5l181.4-161.9
		c35.8-32.4,60.3-73.3,70.9-118.3C526.7,177.2,524.2,158.1,523.7,154.5z M170,92c-43.4,0-78.8,35.3-78.8,78.8c0,5.4-4.4,9.8-9.8,9.8
		s-9.8-4.4-9.8-9.8c0-54.3,44.2-98.5,98.5-98.5c5.4,0,9.8,4.4,9.8,9.8C179.9,87.6,175.5,92,170,92z"/>
	<path class="st2" d="M523.7,154.5c-7.5-82.3-65.7-142-138.6-142c-48.5,0-93,26.1-118,68c-24.8-42.4-67.4-68-115.2-68
		C79,12.5,20.8,72.2,13.3,154.4c-0.6,3.6-3,22.8,4.4,53.9c10.6,45,35.1,85.9,70.9,118.3L267,488.5l181.4-161.9
		c35.8-32.4,60.3-73.3,70.9-118.3C526.7,177.2,524.2,158.1,523.7,154.5z M170,92c-43.4,0-78.8,35.3-78.8,78.8c0,5.4-4.4,9.8-9.8,9.8
		s-9.8-4.4-9.8-9.8c0-54.3,44.2-98.5,98.5-98.5c5.4,0,9.8,4.4,9.8,9.8C179.9,87.6,175.5,92,170,92z"/>
</g>
</svg>
