<?xml version="1.0" encoding="iso-8859-1"?>
<!-- Generator: Adobe Illustrator 16.0.0, SVG Export Plug-In . SVG Version: 6.00 Build 0)  -->
<!DOCTYPE svg PUBLIC "-//W3C//DTD SVG 1.1//EN" "http://www.w3.org/Graphics/SVG/1.1/DTD/svg11.dtd">
<svg version="1.1" id="Capa_1" xmlns="http://www.w3.org/2000/svg" xmlns:xlink="http://www.w3.org/1999/xlink" x="0px" y="0px"
	 width="554.625px" height="554.625px" viewBox="0 0 554.625 554.625" style="enable-background:new 0 0 554.625 554.625;"
	 xml:space="preserve">
<g>
	<g>
		<path d="M242.888,156.825l15.3-13.388l-86.062-86.062l-86.062,86.062l15.3,15.3l61.2-63.112v114.75
			c-42.075,3.825-76.5,42.075-76.5,86.062v258.188h172.125V296.438c0-43.987-34.425-80.325-76.5-86.062V95.625L242.888,156.825z
			 M239.062,296.438V535.5H105.188V296.438c0-36.337,30.6-66.938,66.938-66.938S239.062,260.1,239.062,296.438z"/>
		<rect x="124.312" y="459" width="95.625" height="19.125"/>
		<rect x="124.312" y="420.75" width="95.625" height="19.125"/>
		<path d="M124.312,296.438v66.938h95.625v-66.938c0-26.775-21.038-47.812-47.812-47.812S124.312,269.662,124.312,296.438z
			 M200.812,296.438v47.812h-57.375v-47.812c0-15.3,13.388-28.688,28.688-28.688S200.812,281.138,200.812,296.438z"/>
		<path d="M382.5,191.25c-26.775,0-47.812,21.038-47.812,47.812V306h95.625v-66.938C430.312,212.288,409.275,191.25,382.5,191.25z
			 M411.188,286.875h-57.375v-47.812c0-15.3,13.388-28.688,28.688-28.688s28.688,13.388,28.688,28.688V286.875z"/>
		<rect x="334.688" y="401.625" width="95.625" height="19.125"/>
		<path d="M392.062,153V38.25l61.2,61.2l15.3-13.388L382.5,0l-86.062,86.062l15.3,15.3l61.2-63.112V153
			c-42.075,3.825-76.5,42.075-76.5,86.062v315.562h172.125V239.062C468.562,195.075,434.138,158.737,392.062,153z M449.438,535.5
			H315.562V239.062c0-36.337,30.6-66.938,66.938-66.938s66.938,30.6,66.938,66.938V535.5z"/>
		<rect x="334.688" y="363.375" width="95.625" height="19.125"/>
	</g>
</g>
<g>
</g>
<g>
</g>
<g>
</g>
<g>
</g>
<g>
</g>
<g>
</g>
<g>
</g>
<g>
</g>
<g>
</g>
<g>
</g>
<g>
</g>
<g>
</g>
<g>
</g>
<g>
</g>
<g>
</g>
</svg>
