<?xml version="1.0" encoding="iso-8859-1"?>
<!-- Generator: Adobe Illustrator 16.0.0, SVG Export Plug-In . SVG Version: 6.00 Build 0)  -->
<!DOCTYPE svg PUBLIC "-//W3C//DTD SVG 1.1//EN" "http://www.w3.org/Graphics/SVG/1.1/DTD/svg11.dtd">
<svg version="1.1" id="Capa_1" xmlns="http://www.w3.org/2000/svg" xmlns:xlink="http://www.w3.org/1999/xlink" x="0px" y="0px"
	 width="554.625px" height="554.625px" viewBox="0 0 554.625 554.625" style="enable-background:new 0 0 554.625 554.625;"
	 xml:space="preserve">
<g>
	<g>
		<rect x="229.5" y="363.375" width="95.625" height="19.125"/>
		<path d="M286.875,153V38.25l61.2,61.2l15.3-13.388L277.312,0L191.25,86.062l15.3,15.3l61.2-63.112V153
			c-42.075,3.825-76.5,42.075-76.5,86.062v315.562h172.125V239.062C363.375,195.075,328.95,158.737,286.875,153z M344.25,535.5
			H210.375V239.062c0-36.337,30.6-66.938,66.938-66.938c36.338,0,66.938,30.6,66.938,66.938V535.5z"/>
		<rect x="229.5" y="401.625" width="95.625" height="19.125"/>
		<path d="M277.312,191.25c-26.775,0-47.812,21.038-47.812,47.812V306h95.625v-66.938
			C325.125,212.288,304.088,191.25,277.312,191.25z M306,286.875h-57.375v-47.812c0-15.3,13.388-28.688,28.688-28.688
			S306,223.763,306,239.062V286.875z"/>
	</g>
</g>
<g>
</g>
<g>
</g>
<g>
</g>
<g>
</g>
<g>
</g>
<g>
</g>
<g>
</g>
<g>
</g>
<g>
</g>
<g>
</g>
<g>
</g>
<g>
</g>
<g>
</g>
<g>
</g>
<g>
</g>
</svg>
