<?xml version="1.0" standalone="no"?>
<!DOCTYPE svg PUBLIC "-//W3C//DTD SVG 20010904//EN"
 "http://www.w3.org/TR/2001/REC-SVG-20010904/DTD/svg10.dtd">
<svg version="1.0" xmlns="http://www.w3.org/2000/svg"
 width="3107.000000pt" height="3107.000000pt" viewBox="0 0 3107.000000 3107.000000"
 preserveAspectRatio="xMidYMid meet">
<metadata>
Created by potrace 1.11, written by Peter Selinger 2001-2013
</metadata>
<g transform="translate(0.000000,3107.000000) scale(0.100000,-0.100000)"
fill="#000000" stroke="none">
<path d="M14618 30985 c-2 -1 -52 -6 -113 -9 -143 -9 -260 -17 -310 -22 -22
-2 -74 -6 -115 -9 -41 -4 -81 -10 -90 -15 -8 -4 -38 -9 -65 -11 -28 -1 -60 -6
-72 -10 -13 -5 -46 -11 -74 -14 -28 -3 -62 -10 -75 -16 -14 -5 -41 -9 -60 -9
-19 0 -34 -4 -34 -10 0 -5 -18 -10 -41 -10 -22 0 -48 -4 -58 -10 -10 -5 -35
-10 -55 -12 -20 -1 -36 -5 -36 -9 0 -3 -10 -7 -22 -7 -22 -1 -85 -13 -138 -27
-14 -4 -31 -7 -37 -7 -7 -1 -13 -4 -13 -8 0 -4 -22 -10 -49 -13 -27 -3 -70
-12 -97 -20 -74 -23 -245 -59 -281 -61 -17 0 -29 -4 -26 -8 2 -5 1 -8 -4 -8
-20 0 -506 -113 -663 -154 -516 -134 -1020 -299 -1210 -396 -19 -10 -39 -19
-45 -20 -5 -2 -39 -17 -75 -33 -36 -17 -68 -30 -72 -29 -5 1 -8 -3 -8 -8 0 -6
-5 -10 -12 -10 -16 0 -208 -98 -230 -118 -10 -8 -18 -12 -18 -8 0 4 -12 -1
-27 -12 -59 -41 -153 -75 -230 -84 -7 -1 -13 -5 -13 -10 0 -5 -4 -7 -10 -3 -5
3 -17 2 -27 -4 -20 -10 -75 -34 -83 -36 -30 -7 -50 -19 -50 -28 0 -7 -4 -6
-10 3 -5 8 -10 10 -10 4 0 -11 -68 -41 -82 -37 -4 2 -8 -2 -8 -7 0 -6 -7 -10
-15 -10 -8 0 -15 -5 -15 -12 0 -6 -3 -9 -6 -5 -9 9 -65 -14 -58 -24 3 -5 -2
-6 -10 -3 -9 4 -18 -1 -22 -10 -3 -9 -10 -14 -14 -11 -5 3 -11 1 -15 -5 -4 -6
-12 -7 -18 -4 -7 4 -9 4 -5 0 9 -11 -14 -35 -28 -29 -7 2 -15 -1 -19 -6 -3 -6
-11 -8 -17 -5 -7 4 -8 2 -4 -4 4 -7 -3 -16 -18 -21 -13 -6 -29 -17 -34 -26 -5
-9 -12 -16 -15 -16 -20 3 -29 -2 -66 -39 -23 -23 -41 -39 -41 -37 0 7 -264
-257 -288 -288 -12 -15 -22 -24 -22 -20 0 4 -10 -5 -22 -21 -13 -16 -22 -32
-21 -36 2 -5 -3 -7 -10 -5 -6 1 -11 -4 -10 -10 2 -7 0 -12 -5 -12 -20 3 -32
-2 -26 -12 9 -14 -159 -173 -171 -161 -3 3 -5 -1 -5 -8 0 -7 -2 -11 -5 -8 -3
3 -17 -4 -31 -16 -36 -30 -290 -284 -345 -344 -26 -28 -50 -48 -53 -45 -3 3
-3 -5 -1 -17 2 -12 2 -20 -2 -16 -9 8 -53 -66 -46 -78 4 -5 1 -6 -4 -3 -10 7
-28 -20 -25 -35 1 -5 -3 -8 -9 -8 -6 0 -8 -7 -5 -16 3 -8 2 -12 -3 -9 -5 3
-11 -5 -13 -17 -2 -13 -9 -22 -16 -20 -8 1 -11 -2 -7 -8 3 -5 2 -10 -4 -10 -5
0 -8 -11 -6 -25 1 -14 -1 -25 -5 -25 -4 0 -22 -36 -41 -80 -18 -44 -37 -80
-41 -80 -5 0 -6 -4 -3 -10 3 -5 1 -10 -4 -10 -6 0 -11 -7 -11 -15 0 -8 -5 -15
-12 -15 -6 0 -9 -3 -5 -6 3 -4 -9 -30 -28 -59 -18 -29 -31 -56 -28 -59 3 -3
-2 -8 -11 -12 -9 -3 -13 -10 -10 -15 3 -5 0 -9 -5 -9 -6 0 -11 -7 -11 -15 0
-8 -5 -15 -11 -15 -5 0 -8 -4 -4 -9 3 -5 -1 -15 -8 -23 -7 -7 -15 -17 -16 -23
-1 -5 -8 -23 -16 -40 -23 -53 -50 -130 -47 -137 1 -5 -2 -8 -6 -8 -5 0 -9 -6
-10 -12 -2 -21 -7 -42 -14 -53 -3 -5 -9 -26 -14 -45 -11 -50 -11 -50 -14 -52
-11 -15 -23 -136 -22 -238 1 -133 7 -192 23 -222 7 -12 12 -25 11 -28 -4 -14
20 -81 34 -95 8 -8 12 -15 7 -15 -4 0 -3 -4 2 -8 12 -9 37 -74 25 -67 -13 8
-8 -39 5 -47 7 -5 6 -8 -2 -8 -6 0 -10 -11 -8 -25 1 -14 -2 -25 -8 -25 -5 0
-5 -5 2 -13 6 -8 8 -16 6 -19 -3 -3 -7 -41 -8 -84 -3 -71 -7 -85 -40 -139 -20
-33 -37 -66 -37 -72 0 -7 -4 -13 -9 -13 -5 0 -11 -8 -14 -17 -12 -37 -85 -162
-91 -156 -3 4 -6 1 -6 -6 0 -16 -52 -124 -63 -132 -5 -3 -8 -9 -8 -13 3 -20 0
-26 -9 -21 -5 3 -10 0 -10 -8 0 -8 -15 -43 -33 -78 -17 -35 -41 -85 -52 -111
-10 -27 -23 -48 -27 -48 -4 0 -7 -3 -6 -7 1 -5 -4 -21 -10 -36 -7 -16 -12 -32
-12 -36 0 -4 -9 -17 -20 -29 -12 -12 -18 -22 -16 -22 3 0 -5 -25 -19 -56 -14
-31 -25 -63 -25 -70 0 -8 -4 -14 -10 -14 -5 0 -10 -8 -10 -18 0 -10 -6 -26
-13 -37 -19 -27 -147 -346 -146 -361 0 -4 -3 -10 -8 -13 -5 -3 -42 -96 -83
-206 -40 -110 -79 -213 -86 -230 -6 -16 -19 -50 -27 -75 -33 -97 -138 -406
-144 -420 -4 -8 -7 -17 -8 -20 -1 -3 -4 -12 -8 -20 -12 -31 -48 -157 -79 -270
-12 -47 -25 -87 -28 -90 -3 -3 -6 -12 -7 -20 -3 -28 -31 -137 -40 -160 -7 -16
-13 -43 -16 -72 -1 -9 -5 -14 -9 -12 -4 3 -8 -6 -8 -20 0 -14 -5 -26 -11 -26
-6 0 -9 -10 -8 -22 2 -13 -1 -30 -6 -38 -9 -15 -14 -30 -17 -62 -1 -10 -6 -18
-10 -18 -4 0 -8 -9 -8 -20 0 -11 -4 -20 -8 -20 -12 0 -10 -44 2 -52 7 -5 4 -8
-6 -8 -16 0 -23 -17 -19 -42 0 -5 -4 -8 -10 -8 -5 0 -7 -5 -4 -10 4 -6 1 -17
-5 -25 -7 -8 -10 -15 -6 -15 3 0 1 -11 -4 -24 -6 -16 -5 -27 3 -35 9 -10 9
-12 -2 -9 -13 3 -23 -20 -22 -54 0 -10 -5 -18 -10 -18 -5 0 -9 -6 -8 -12 3
-27 -1 -49 -10 -44 -4 3 -7 -6 -5 -19 1 -14 -2 -25 -7 -25 -6 0 -7 -4 -4 -10
3 -5 1 -19 -5 -30 -8 -15 -8 -20 2 -20 9 -1 7 -5 -4 -14 -13 -10 -15 -15 -6
-24 9 -9 9 -12 0 -12 -7 0 -12 -7 -12 -16 0 -9 5 -12 13 -8 6 4 5 -1 -4 -12
-9 -10 -15 -27 -14 -36 2 -10 -1 -18 -6 -18 -6 0 -7 -5 -4 -10 4 -6 1 -18 -7
-27 -9 -12 -9 -15 0 -9 6 4 12 2 12 -3 0 -6 -4 -11 -8 -11 -9 0 -13 -32 -14
-92 0 -15 -4 -25 -10 -22 -5 3 -7 -6 -4 -20 3 -14 0 -26 -5 -26 -6 0 -8 -13
-5 -30 2 -17 0 -30 -6 -30 -6 0 -8 -7 -4 -15 3 -8 0 -15 -7 -15 -8 0 -8 -3 2
-9 11 -7 10 -11 -5 -20 -11 -6 -14 -11 -8 -11 12 0 13 -78 1 -98 -5 -6 -4 -12
1 -12 10 0 7 -54 -3 -71 -4 -5 -1 -9 5 -9 6 0 8 -5 3 -12 -8 -14 -12 -30 -18
-68 -1 -14 -4 -25 -5 -25 -2 0 -5 -15 -29 -135 -26 -136 -28 -148 -47 -260
-30 -190 -32 -199 -39 -262 -3 -27 -7 -67 -10 -90 -11 -99 -17 -190 -20 -304
-1 -67 -5 -126 -8 -130 -2 -5 -3 -47 -1 -94 3 -47 6 -125 8 -175 2 -49 7 -119
11 -155 4 -36 9 -78 10 -95 1 -16 4 -30 5 -30 2 0 4 -16 6 -35 4 -37 11 -84
27 -172 2 -10 6 -21 10 -24 4 -4 7 -17 7 -28 1 -48 99 -384 136 -464 8 -18 17
-40 19 -50 2 -9 22 -64 45 -122 23 -58 43 -109 45 -115 1 -5 7 -21 12 -35 11
-24 88 -223 120 -305 30 -80 83 -235 87 -257 3 -13 5 -24 7 -25 1 -2 2 -6 4
-10 1 -5 4 -15 8 -23 3 -8 31 -103 61 -210 30 -107 67 -228 81 -269 14 -41 25
-84 25 -96 0 -23 -28 -55 -48 -55 -7 0 -12 -4 -12 -10 0 -5 -9 -10 -20 -10
-11 0 -20 -4 -20 -9 0 -5 -12 -11 -27 -15 -16 -3 -58 -14 -95 -25 -37 -10 -70
-16 -73 -13 -3 3 -5 0 -5 -7 0 -7 -5 -9 -11 -6 -12 8 -56 -35 -51 -50 2 -5 1
-7 -3 -3 -4 3 -24 -10 -46 -30 -55 -52 -69 -64 -69 -57 0 4 -25 -18 -55 -49
-30 -30 -55 -53 -55 -51 0 2 -13 -10 -30 -27 -16 -16 -30 -33 -30 -36 0 -4
-14 -16 -30 -27 -17 -11 -33 -28 -36 -38 -3 -9 -10 -15 -15 -12 -5 4 -9 -1 -9
-10 0 -10 -5 -13 -12 -9 -8 5 -9 2 -4 -12 4 -10 4 -16 1 -12 -9 9 -45 -23 -39
-34 3 -5 0 -7 -8 -6 -7 2 -12 -4 -10 -14 1 -9 -2 -19 -7 -23 -7 -3 -7 -15 -1
-29 5 -13 7 -26 4 -28 -7 -8 -8 -113 -1 -125 4 -6 3 -14 -1 -17 -14 -8 2 -101
20 -123 7 -9 7 -13 -1 -13 -8 0 -9 -6 -3 -17 5 -10 7 -24 5 -30 -3 -7 0 -13 6
-13 6 0 11 -5 11 -11 0 -5 -6 -7 -12 -3 -7 4 -6 -1 3 -12 20 -24 31 -52 34
-84 4 -39 4 -41 13 -36 4 2 9 -5 9 -16 1 -12 8 -25 15 -29 7 -5 9 -9 4 -9 -4
0 -1 -11 8 -25 11 -17 12 -25 5 -25 -7 0 -2 -8 9 -19 12 -10 22 -30 22 -44 0
-14 5 -29 10 -32 6 -3 10 -17 10 -30 0 -12 7 -25 15 -29 8 -3 15 -9 14 -13 -1
-4 0 -12 1 -18 6 -25 4 -41 -5 -47 -6 -5 -5 -8 3 -8 10 0 10 -5 1 -22 -10 -18
-9 -20 6 -14 15 5 16 4 6 -8 -8 -10 -9 -16 -1 -21 6 -3 8 -11 5 -16 -4 -5 -1
-9 4 -9 6 0 10 -3 10 -7 -3 -20 2 -34 11 -28 6 3 10 1 10 -5 0 -6 5 -8 11 -4
8 4 8 0 0 -15 -8 -14 -8 -21 -1 -21 5 0 10 -5 10 -11 0 -5 -5 -7 -11 -3 -8 4
-8 0 0 -15 7 -11 8 -21 4 -21 -4 0 0 -5 11 -11 14 -9 15 -13 6 -19 -11 -7 -10
-11 1 -23 10 -9 14 -31 13 -61 -1 -25 2 -43 7 -40 5 3 9 -3 9 -13 0 -11 4 -23
10 -29 5 -5 11 -23 12 -39 1 -17 9 -39 17 -49 9 -11 10 -16 4 -12 -16 9 -17
-6 -1 -22 8 -8 8 -12 1 -12 -6 0 -10 -8 -9 -17 1 -21 28 -51 39 -45 5 2 4 -5
-2 -16 -7 -14 -8 -23 -1 -27 7 -4 7 -13 0 -26 -8 -14 -7 -19 1 -19 6 0 9 -7 6
-15 -4 -8 -2 -17 4 -20 5 -4 6 -12 2 -18 -13 -21 -10 -47 8 -63 10 -9 16 -21
13 -25 -3 -5 -1 -9 4 -9 5 0 12 -9 15 -20 4 -14 0 -20 -11 -20 -15 -1 -14 -2
2 -11 15 -9 16 -13 5 -20 -12 -7 -11 -9 1 -9 13 0 13 -1 0 -10 -13 -8 -13 -10
1 -10 23 0 32 -28 11 -33 -15 -4 -14 -5 2 -6 12 -1 16 -6 12 -17 -4 -10 -2
-13 6 -8 7 5 9 0 6 -13 -3 -11 -1 -28 5 -38 7 -13 6 -16 -2 -11 -6 4 -11 4
-11 -1 1 -12 26 -43 32 -38 2 3 3 -19 2 -47 -3 -37 -1 -48 6 -38 5 8 10 10 10
5 0 -6 -5 -16 -12 -23 -9 -9 -9 -12 1 -12 7 0 10 -4 6 -9 -3 -5 2 -16 10 -25
11 -10 12 -17 4 -22 -8 -4 -7 -9 2 -15 11 -7 11 -9 -1 -9 -13 0 -13 -1 0 -10
12 -8 12 -10 1 -10 -11 0 -11 -3 0 -17 12 -14 12 -16 -1 -9 -11 6 -11 4 1 -6
9 -7 15 -21 13 -30 -1 -10 3 -18 9 -18 8 0 7 -3 -1 -9 -10 -6 -8 -10 8 -14 14
-4 21 -11 17 -20 -3 -8 0 -20 6 -26 8 -8 8 -11 -1 -11 -7 0 -2 -10 10 -22 20
-20 20 -22 3 -35 -11 -7 -14 -13 -8 -13 6 0 10 -12 8 -26 -1 -14 4 -31 11 -39
17 -17 18 -29 2 -19 -10 6 -10 4 -2 -7 17 -22 24 -59 11 -59 -7 0 -5 -5 3 -10
8 -5 10 -10 5 -10 -6 0 -11 -9 -11 -19 0 -11 5 -17 10 -14 5 4 7 -1 3 -10 -3
-10 -2 -17 4 -17 6 0 7 -4 4 -10 -3 -6 -1 -10 5 -10 6 0 9 -4 6 -9 -4 -5 0
-12 6 -14 10 -4 9 -8 -2 -16 -8 -6 -10 -11 -4 -11 7 0 15 -7 18 -16 4 -10 2
-13 -7 -8 -6 4 2 -8 18 -26 17 -18 24 -30 18 -26 -9 5 -11 2 -7 -8 3 -9 10
-14 14 -11 5 3 5 -9 -1 -27 -11 -40 -11 -40 0 -34 5 4 7 -3 4 -14 -3 -11 -10
-17 -16 -13 -6 3 -7 1 -3 -6 4 -6 11 -9 15 -7 4 3 13 -5 20 -16 11 -18 11 -20
-3 -15 -14 6 -14 3 1 -20 17 -26 17 -27 -1 -20 -19 8 -19 7 -1 -13 11 -12 13
-20 6 -20 -9 0 -9 -5 0 -21 6 -12 7 -19 1 -15 -6 4 -8 -2 -5 -14 3 -11 9 -20
14 -20 5 0 9 -5 9 -11 0 -5 -6 -7 -12 -4 -7 4 -3 -2 9 -13 12 -11 19 -22 16
-26 -4 -3 -1 -6 6 -6 22 0 38 -25 38 -61 0 -20 3 -44 6 -53 4 -10 3 -15 -3
-11 -6 3 -10 1 -10 -4 0 -6 5 -11 11 -11 5 0 8 -4 4 -9 -3 -5 -1 -13 5 -16 6
-4 8 -16 4 -27 -3 -11 -2 -18 3 -15 5 3 9 -3 9 -14 0 -13 -5 -18 -16 -14 -9 3
-7 -1 5 -11 11 -8 19 -20 18 -25 -2 -5 2 -9 8 -9 5 0 8 -4 5 -9 -4 -5 0 -12 6
-14 10 -4 10 -6 0 -6 -10 -1 -10 -5 2 -16 9 -10 14 -28 12 -45 -2 -17 0 -30 5
-30 7 0 23 -37 21 -50 0 -3 5 -11 11 -19 10 -12 9 -13 -7 -8 -16 6 -17 5 -7
-7 7 -8 10 -20 6 -26 -3 -5 -1 -10 5 -10 6 0 8 -4 5 -10 -3 -5 -2 -10 4 -10 5
0 9 -18 8 -41 -2 -22 1 -43 6 -46 5 -3 4 -9 -3 -13 -8 -5 -7 -11 4 -23 19 -19
21 -31 3 -22 -6 4 -3 -1 7 -9 15 -12 16 -16 5 -16 -12 0 -12 -2 1 -10 8 -5 16
-17 17 -27 3 -29 8 -47 16 -60 4 -6 1 -14 -5 -16 -10 -4 -10 -6 0 -6 6 -1 12
-8 12 -17 0 -9 5 -12 12 -8 7 5 8 3 2 -7 -12 -20 -14 -39 -3 -39 6 0 8 -4 4
-9 -3 -5 2 -17 11 -25 11 -12 12 -16 2 -16 -9 0 -9 -3 -2 -8 6 -4 10 -15 8
-24 -1 -10 1 -20 5 -23 4 -2 7 -18 6 -34 -1 -17 2 -28 6 -25 5 3 7 -9 5 -25
-2 -17 1 -32 5 -33 9 -3 20 -39 21 -68 0 -8 5 -21 10 -27 7 -9 5 -15 -6 -19
-12 -5 -14 -10 -6 -19 5 -6 7 -15 3 -18 -3 -4 0 -13 7 -22 11 -13 10 -15 -2
-10 -12 5 -13 -4 -8 -47 3 -29 3 -72 -1 -96 -3 -24 -2 -45 3 -48 5 -3 4 -11
-1 -18 -7 -9 -7 -16 1 -24 7 -7 8 -12 2 -12 -5 0 -9 -17 -9 -38 0 -20 -3 -45
-8 -54 -5 -11 -4 -18 3 -18 5 0 10 -5 10 -11 0 -5 -5 -7 -11 -4 -7 5 -10 -9
-9 -41 1 -27 1 -53 0 -59 -1 -5 -1 -21 0 -34 1 -13 -2 -21 -7 -18 -4 3 -8 -32
-8 -76 0 -45 -3 -93 -6 -107 -3 -14 -2 -35 2 -48 5 -12 5 -22 1 -22 -4 0 -7
-20 -6 -45 0 -28 -4 -46 -13 -49 -9 -4 -10 -12 -3 -31 6 -16 6 -25 -1 -25 -6
0 -6 -7 1 -20 6 -11 7 -20 3 -20 -5 0 -10 -11 -11 -26 -1 -17 2 -23 11 -19 6
4 5 1 -3 -7 -9 -8 -14 -26 -12 -47 2 -23 0 -31 -8 -26 -9 6 -9 2 -1 -12 6 -11
8 -23 4 -26 -3 -4 0 -14 8 -24 8 -9 9 -14 2 -10 -6 4 -14 3 -18 -2 -3 -5 3
-14 12 -20 10 -6 13 -11 6 -11 -8 0 -12 -20 -12 -61 0 -33 -2 -63 -5 -66 -2
-3 -1 -16 4 -29 6 -14 6 -24 1 -24 -5 0 -8 -11 -7 -25 2 -13 -1 -22 -6 -19 -5
3 -6 -5 -3 -18 16 -62 7 -106 -18 -91 -9 5 -9 3 -1 -8 14 -18 14 -49 0 -49 -5
0 -2 -6 8 -13 16 -12 16 -14 2 -26 -11 -9 -13 -18 -7 -25 14 -17 14 -28 -1
-37 -8 -6 -9 -9 -1 -9 11 0 12 -24 1 -36 -4 -3 -3 -17 3 -31 11 -31 11 -36 0
-28 -6 3 -6 -6 -1 -24 5 -19 4 -33 -3 -40 -7 -7 -7 -11 -1 -11 11 0 12 -35 1
-46 -3 -4 -2 -14 3 -23 5 -10 5 -23 0 -31 -5 -9 -5 -19 1 -26 7 -8 6 -14 -1
-19 -8 -5 -8 -11 1 -21 9 -11 8 -14 -2 -14 -11 0 -11 -2 1 -10 12 -8 12 -10 1
-10 -10 0 -11 -3 -2 -14 8 -9 8 -16 2 -20 -10 -6 -8 -37 4 -56 3 -6 3 -10 -2
-10 -4 0 -8 -13 -8 -30 0 -16 4 -30 9 -30 5 0 3 -6 -3 -14 -8 -10 -9 -16 -1
-21 6 -3 7 -12 3 -18 -10 -17 -12 -57 -2 -57 5 0 5 -10 1 -22 -9 -26 -8 -98 1
-122 4 -9 3 -16 -2 -16 -11 0 -8 -70 4 -70 7 0 7 -3 0 -8 -12 -9 -13 -132 -1
-132 5 0 3 -6 -3 -14 -9 -10 -9 -16 -1 -21 7 -4 8 -11 1 -18 -16 -20 -16 -23
-3 -40 8 -9 9 -18 3 -21 -9 -6 -7 -43 4 -54 2 -3 0 -11 -6 -19 -9 -10 -8 -13
0 -13 7 0 9 -5 4 -12 -9 -16 -10 -47 -1 -74 4 -12 1 -27 -5 -33 -8 -8 -8 -11
0 -11 12 0 12 -18 0 -37 -5 -8 -3 -13 3 -13 7 0 8 -6 1 -18 -6 -11 -6 -24 -1
-32 5 -8 5 -19 -1 -26 -6 -8 -5 -13 5 -17 10 -4 12 -14 7 -39 -5 -24 -3 -37 8
-46 9 -8 10 -11 4 -7 -7 3 -13 1 -13 -4 0 -6 6 -11 13 -11 9 0 9 -2 1 -8 -14
-8 -13 -54 1 -64 6 -5 4 -8 -5 -8 -13 0 -13 -2 -1 -9 12 -8 12 -12 2 -24 -8
-10 -9 -17 -1 -22 5 -3 10 -15 10 -26 0 -10 5 -19 10 -19 7 0 7 -6 1 -18 -6
-11 -6 -24 0 -33 5 -7 9 -31 9 -52 0 -21 4 -36 8 -33 5 3 9 -1 9 -9 0 -8 -5
-15 -11 -15 -8 0 -8 -2 0 -8 17 -12 23 -39 11 -51 -8 -8 -8 -11 1 -11 6 0 9
-7 6 -15 -4 -8 0 -23 7 -31 16 -20 18 -46 4 -56 -6 -5 -5 -8 2 -8 7 0 10 -7 6
-17 -5 -12 -3 -14 8 -8 12 8 12 6 0 -8 -9 -11 -10 -17 -2 -17 6 0 11 -12 11
-27 0 -16 7 -37 15 -47 8 -10 12 -23 9 -27 -3 -5 -1 -9 3 -9 5 0 9 -10 10 -22
0 -13 3 -36 7 -53 4 -16 8 -34 9 -40 2 -5 6 -16 10 -23 5 -7 3 -12 -5 -12 -8
-1 -7 -5 5 -14 10 -8 17 -18 16 -22 -4 -22 2 -45 10 -40 5 3 12 -2 16 -12 12
-28 13 -52 1 -52 -6 0 -3 -5 7 -11 9 -6 15 -15 11 -20 -3 -5 0 -16 6 -24 7 -8
9 -15 6 -15 -4 0 0 -7 9 -16 13 -14 14 -19 3 -25 -10 -7 -9 -9 4 -9 11 0 18
-12 23 -40 4 -22 10 -38 15 -35 4 3 6 -3 3 -13 -2 -10 3 -24 11 -31 9 -8 16
-20 16 -28 0 -8 4 -11 10 -8 6 3 7 -1 4 -9 -3 -9 -1 -16 6 -16 6 0 8 -4 5 -10
-3 -5 -1 -10 6 -10 7 0 10 -3 6 -6 -3 -4 5 -27 19 -51 13 -24 25 -55 26 -68 1
-13 5 -22 9 -19 4 2 10 -4 13 -13 3 -10 17 -30 31 -45 14 -15 25 -30 25 -33
-1 -28 1 -35 10 -30 5 3 10 0 10 -8 0 -7 8 -22 18 -33 10 -10 19 -23 21 -29 2
-5 8 -9 14 -7 7 2 9 0 5 -3 -9 -10 19 -65 33 -65 8 0 8 -4 0 -14 -10 -11 -8
-16 8 -21 12 -3 21 -11 21 -17 0 -5 13 -23 30 -38 16 -15 30 -31 30 -34 0 -3
36 -43 80 -88 44 -45 80 -86 80 -90 0 -4 4 -8 10 -8 5 0 31 -22 57 -50 26 -27
54 -50 63 -50 13 0 13 -1 0 -10 -13 -8 -12 -10 4 -10 11 0 17 -3 13 -6 -6 -6
37 -54 49 -54 3 0 15 -11 26 -25 11 -14 25 -22 31 -18 7 3 9 3 5 -1 -7 -8 55
-76 69 -76 5 0 15 -9 23 -19 7 -11 17 -18 22 -15 4 3 8 -2 8 -11 0 -9 4 -14 9
-11 5 3 11 -1 15 -9 3 -8 11 -15 18 -15 8 0 20 -9 28 -20 8 -11 18 -20 22 -20
9 0 44 -28 67 -52 8 -10 21 -18 28 -18 7 0 13 -4 13 -9 0 -5 23 -24 50 -42 28
-18 50 -37 50 -42 0 -6 3 -8 6 -4 4 3 12 1 19 -6 6 -7 24 -21 39 -32 16 -11
47 -34 70 -51 22 -17 86 -61 141 -99 55 -38 102 -72 105 -75 3 -3 17 -11 32
-19 15 -8 25 -18 22 -23 -3 -4 1 -8 9 -8 8 0 20 -7 27 -15 7 -9 15 -13 17 -11
3 2 13 -3 23 -12 31 -30 83 -67 88 -64 3 2 8 0 11 -6 3 -5 40 -33 81 -63 41
-29 77 -57 78 -61 2 -5 10 -8 18 -8 8 0 14 -5 14 -12 0 -6 3 -9 6 -5 4 3 13
-1 22 -9 8 -9 56 -43 106 -77 50 -33 97 -67 104 -74 7 -7 19 -13 26 -13 6 0
18 -9 26 -20 8 -11 22 -20 31 -20 9 0 19 -7 22 -15 4 -8 23 -23 44 -35 57 -30
76 -43 90 -60 7 -8 13 -11 13 -6 0 4 9 -2 20 -15 10 -13 19 -20 20 -16 0 5 6
2 14 -5 7 -7 24 -20 36 -28 12 -8 29 -21 36 -28 8 -7 14 -11 14 -7 0 3 10 -4
22 -15 33 -30 158 -122 158 -115 0 3 8 -3 18 -12 35 -33 60 -51 65 -47 2 2 10
-2 17 -11 7 -8 17 -15 22 -15 5 0 18 -8 29 -18 10 -11 32 -25 47 -32 15 -8 36
-21 47 -30 24 -20 161 -100 170 -100 4 0 19 -9 35 -20 15 -11 30 -17 34 -13 3
3 6 1 6 -6 0 -7 4 -10 8 -7 5 3 18 -2 28 -12 10 -9 37 -26 59 -37 22 -11 45
-25 50 -31 6 -6 24 -21 41 -32 35 -24 47 -68 59 -219 10 -124 49 -297 84 -378
5 -11 20 -47 33 -80 12 -33 27 -63 33 -67 7 -5 7 -8 0 -8 -7 0 -7 -3 0 -8 6
-4 25 -36 44 -72 19 -36 39 -68 45 -72 6 -4 7 -8 3 -8 -5 0 -2 -7 5 -15 31
-34 38 -45 31 -45 -4 0 -3 -4 3 -8 6 -4 30 -33 53 -65 24 -31 47 -57 52 -57 5
0 9 -6 9 -12 0 -7 35 -50 78 -96 43 -45 76 -85 73 -87 -2 -3 0 -5 6 -5 6 0 46
-36 88 -80 43 -44 86 -82 97 -85 10 -4 18 -13 18 -21 0 -8 5 -12 10 -9 6 3 10
-2 10 -11 0 -10 3 -15 6 -12 3 3 21 -9 39 -28 19 -19 36 -34 39 -34 2 0 28
-22 57 -50 30 -27 59 -50 65 -50 6 0 17 -11 24 -25 7 -13 16 -22 20 -20 4 2
20 -9 35 -25 16 -17 33 -30 37 -30 5 0 23 -13 41 -30 18 -16 37 -30 43 -30 7
0 14 -7 18 -15 3 -8 12 -15 21 -15 8 0 15 -4 15 -8 0 -4 22 -21 50 -37 27 -17
50 -33 50 -37 0 -5 7 -8 15 -8 8 0 15 -4 15 -10 0 -5 6 -10 14 -10 7 0 29 -13
47 -30 19 -16 39 -30 46 -30 6 0 13 -5 15 -11 2 -5 10 -11 18 -13 8 -1 31 -12
50 -24 52 -33 300 -152 317 -152 7 0 62 -21 138 -51 35 -14 90 -29 95 -26 3 1
18 -6 33 -16 15 -9 27 -15 27 -13 0 3 17 -2 37 -10 20 -9 46 -18 57 -20 11 -2
22 -8 25 -12 3 -5 16 -12 29 -16 12 -4 22 -12 22 -17 0 -5 7 -9 14 -9 18 0 68
-45 60 -53 -3 -3 4 -8 16 -12 13 -4 19 -12 16 -21 -3 -8 -1 -14 4 -14 6 0 10
-7 10 -15 0 -8 4 -15 8 -15 5 0 9 -7 9 -15 0 -8 -5 -15 -11 -15 -8 0 -8 -2 0
-8 13 -9 25 -62 13 -62 -4 0 -6 -9 -4 -20 2 -11 -2 -20 -8 -20 -8 0 -8 -3 2
-9 9 -6 10 -11 2 -15 -6 -4 -9 -12 -6 -17 4 -5 1 -9 -5 -9 -6 0 -8 -5 -5 -10
4 -6 1 -17 -5 -25 -7 -8 -9 -15 -4 -15 5 0 1 -5 -9 -11 -9 -6 -15 -14 -12 -19
3 -5 1 -11 -5 -15 -6 -4 -7 -11 -4 -17 4 -6 2 -8 -3 -5 -8 5 -26 -17 -24 -30
0 -1 -12 -15 -27 -30 -15 -16 -41 -44 -59 -63 -45 -49 -92 -88 -98 -82 -3 3
-5 0 -5 -6 0 -6 -9 -14 -20 -17 -11 -4 -18 -10 -15 -15 3 -5 -4 -11 -15 -15
-11 -4 -19 -9 -17 -13 3 -9 -71 -81 -77 -74 -3 2 -8 -7 -12 -22 -3 -14 -9 -24
-13 -22 -3 2 -12 -2 -19 -10 -7 -8 -11 -14 -9 -14 2 0 -41 -45 -95 -100 -55
-55 -104 -100 -110 -100 -6 0 -9 -3 -6 -6 3 -3 -7 -19 -23 -36 -15 -17 -25
-36 -22 -42 3 -6 3 -8 -2 -4 -11 11 -36 -12 -28 -25 4 -6 0 -8 -10 -4 -16 6
-22 -3 -18 -26 1 -5 -3 -6 -7 -3 -9 5 -45 -27 -39 -35 2 -2 -10 -17 -26 -34
-16 -16 -26 -24 -22 -16 6 9 4 12 -4 7 -6 -4 -9 -11 -6 -16 3 -5 -1 -12 -8
-17 -8 -4 -26 -26 -40 -48 -13 -22 -35 -48 -46 -58 -12 -10 -19 -22 -16 -27 3
-6 -2 -10 -11 -10 -10 0 -15 -3 -12 -6 4 -3 -15 -26 -40 -51 -26 -26 -40 -42
-32 -37 10 5 9 3 -2 -8 -10 -9 -18 -20 -18 -25 0 -14 -37 -42 -46 -35 -4 4 -4
2 -1 -4 8 -14 -17 -37 -28 -26 -5 4 -5 2 -2 -4 3 -6 -3 -18 -14 -27 -11 -10
-17 -22 -14 -27 3 -6 1 -10 -5 -10 -6 0 -16 -14 -21 -30 -6 -17 -15 -30 -20
-30 -5 0 -9 -9 -9 -21 0 -11 -4 -17 -10 -14 -5 3 -10 1 -10 -4 0 -6 -7 -19
-15 -28 -8 -10 -15 -22 -14 -27 0 -5 -12 -17 -28 -27 -15 -10 -23 -19 -18 -19
6 0 3 -6 -5 -13 -21 -17 -48 -53 -32 -43 19 11 14 -1 -9 -23 -11 -10 -22 -27
-24 -37 -1 -11 -7 -18 -13 -17 -6 1 -8 -10 -6 -26 3 -16 0 -32 -6 -36 -6 -3
-7 -12 -3 -18 11 -17 10 -147 -1 -147 -4 0 -6 -9 -3 -20 3 -11 1 -22 -4 -25
-4 -3 -6 -12 -3 -19 3 -8 0 -17 -6 -21 -9 -6 -9 -10 1 -16 11 -7 11 -9 1 -9
-9 0 -10 -5 -2 -19 7 -15 7 -22 -2 -28 -7 -4 -14 -17 -15 -28 -1 -11 -5 -32
-8 -47 -3 -16 -7 -40 -9 -54 -2 -15 -9 -30 -16 -34 -7 -4 -9 -13 -5 -20 5 -9
4 -11 -3 -6 -8 5 -12 0 -12 -13 0 -30 -1 -33 -27 -61 -13 -14 -23 -28 -23 -33
0 -4 -4 -5 -10 -2 -9 6 -14 -8 -11 -28 0 -4 -6 -7 -16 -7 -9 0 -14 -3 -10 -6
3 -3 -4 -15 -14 -27 -53 -59 -54 -60 -39 -52 8 5 4 -4 -9 -18 l-24 -27 4414 1
c2428 0 4409 3 4402 5 -7 3 -10 11 -7 18 3 8 -1 20 -9 27 -14 14 -17 22 -17
40 0 5 -4 8 -8 5 -4 -2 -8 3 -8 12 -1 27 -8 44 -24 64 -8 10 -18 31 -21 46 -3
15 -11 26 -18 24 -7 -1 -10 2 -6 7 3 6 -3 19 -15 31 -11 11 -18 20 -15 20 3 0
0 10 -7 23 -7 12 -13 25 -14 30 -1 4 -3 10 -4 15 -1 4 -2 10 -1 15 0 4 -4 7
-10 7 -5 0 -7 5 -4 10 3 5 -1 10 -10 10 -9 0 -13 5 -10 10 3 6 0 10 -7 10 -10
0 -10 2 1 9 11 7 10 11 -5 20 -11 6 -15 11 -11 11 5 0 1 7 -7 16 -9 8 -14 20
-11 25 4 5 1 9 -5 9 -6 0 -8 4 -5 10 3 5 1 10 -4 10 -6 0 -11 7 -11 15 0 8 -5
15 -11 15 -5 0 -7 5 -3 12 4 6 0 16 -8 22 -15 11 -18 17 -18 37 0 5 -6 7 -12
3 -8 -5 -7 0 2 11 8 10 10 16 3 12 -11 -7 -30 28 -25 46 1 4 -3 7 -9 7 -5 0
-7 5 -4 10 3 6 1 10 -5 10 -6 0 -8 5 -5 10 3 6 1 10 -5 10 -6 0 -8 4 -5 10 3
5 2 10 -2 10 -5 0 -14 9 -21 21 -11 17 -11 20 0 13 7 -4 3 4 -8 17 -21 23 -40
66 -36 82 1 4 -5 7 -13 7 -8 0 -15 8 -15 18 0 11 -9 29 -20 42 -11 12 -22 31
-25 41 -4 11 -10 19 -15 19 -5 0 -6 7 -3 17 4 11 3 14 -5 9 -8 -5 -12 1 -12
16 0 15 -3 19 -8 11 -5 -8 -12 4 -20 32 -7 25 -17 45 -23 45 -5 0 -8 4 -4 9 3
5 -1 15 -8 23 -8 7 -12 19 -9 26 2 7 -2 11 -10 10 -7 -2 -12 3 -10 10 1 6 -3
12 -10 12 -6 0 -9 3 -5 6 3 4 1 12 -6 20 -30 33 -35 42 -30 48 4 3 1 6 -5 6
-7 0 -12 7 -12 15 0 8 -4 15 -10 15 -5 0 -10 7 -10 15 0 8 -5 15 -11 15 -5 0
-7 4 -4 10 3 5 1 10 -5 10 -6 0 -9 4 -5 9 3 5 -4 12 -15 16 -11 4 -18 10 -16
13 7 11 -22 72 -34 72 -6 0 -8 5 -5 10 3 6 -1 13 -9 16 -9 3 -13 10 -10 15 3
5 0 9 -6 9 -6 0 -9 4 -5 9 3 5 -6 21 -19 34 -14 14 -22 28 -19 31 4 3 1 6 -5
6 -7 0 -12 7 -12 15 0 7 -8 19 -17 24 -10 6 -14 11 -10 11 5 0 1 7 -7 16 -9 8
-13 20 -10 26 4 7 2 8 -4 4 -7 -4 -12 -1 -12 9 0 10 -5 13 -12 9 -7 -4 -8 -3
-4 5 4 6 0 18 -8 27 -9 9 -14 20 -11 25 4 5 -1 9 -9 9 -9 0 -15 3 -15 8 3 20
-2 32 -16 32 -8 0 -14 6 -13 13 2 6 -3 11 -10 9 -8 -1 -11 2 -8 7 4 5 -5 21
-18 34 -14 14 -22 28 -19 31 4 3 -1 6 -10 6 -15 0 -22 11 -18 33 0 4 -5 7 -13
7 -15 0 -30 27 -27 48 1 7 -5 15 -14 18 -8 3 -15 12 -15 20 0 8 -5 14 -11 14
-5 0 -7 5 -3 12 5 7 3 8 -5 4 -8 -5 -14 0 -18 13 -3 11 -9 18 -14 15 -8 -5
-11 2 -8 22 0 3 -9 14 -20 23 -11 10 -18 21 -14 25 3 3 1 6 -6 6 -12 0 -41 24
-41 33 0 3 -18 24 -39 46 -22 23 -43 50 -46 61 -4 11 -13 20 -21 20 -13 0 -16
5 -18 39 -1 8 -11 15 -24 16 -12 1 -25 5 -29 10 -5 4 1 5 12 2 19 -7 19 -6 3
7 -10 7 -18 20 -18 28 0 9 -21 39 -47 67 -74 79 -74 79 -60 84 9 4 9 6 0 6 -7
1 -13 8 -13 16 0 8 -4 15 -10 15 -5 0 -7 7 -4 15 4 8 1 15 -5 15 -6 0 -11 5
-11 11 0 5 6 7 13 4 6 -4 4 0 -6 8 -10 9 -14 18 -8 21 10 7 9 31 -2 42 -4 4
-2 13 4 21 9 10 7 13 -7 13 -16 0 -17 2 -4 10 11 7 11 10 2 10 -10 0 -10 5 -2
20 8 15 8 20 -1 18 -11 -3 -13 2 -20 52 -5 30 -20 50 -33 42 -5 -3 -6 0 -3 6
9 14 -3 43 -14 36 -5 -3 -9 2 -9 10 0 9 -5 16 -11 16 -5 0 -7 5 -4 10 4 6 1
18 -7 27 -11 14 -11 16 1 8 11 -6 13 -4 7 11 -5 10 -9 25 -9 32 0 6 -5 12 -11
12 -7 0 -7 3 -1 8 13 9 15 42 3 42 -6 0 -6 6 1 14 8 10 9 16 1 21 -5 3 -10 22
-10 41 0 19 -4 34 -8 34 -5 0 -9 21 -11 47 -1 26 -8 51 -14 55 -9 6 -9 8 1 8
9 0 10 5 3 19 -6 10 -7 21 -4 25 3 3 0 6 -7 6 -7 0 -11 3 -8 6 4 3 1 20 -7 37
-7 18 -10 38 -8 45 3 6 0 12 -7 12 -6 0 -8 5 -5 10 3 6 2 10 -3 10 -4 0 -7 16
-6 35 2 21 -1 33 -6 30 -6 -4 -10 -1 -10 6 0 6 -8 18 -17 26 -11 9 -12 12 -3
7 8 -4 0 7 -17 24 -31 31 -46 61 -22 46 8 -4 8 -1 2 12 -5 11 -8 34 -7 52 1
19 -2 30 -8 26 -6 -4 -5 2 1 15 9 16 9 21 0 21 -8 0 -8 5 1 16 8 8 9 14 3 12
-6 -2 -11 1 -11 6 0 5 -4 12 -9 15 -5 3 -14 19 -21 34 -7 15 -17 25 -22 22 -6
-3 -10 -1 -10 6 0 6 -8 17 -17 24 -18 13 -28 49 -11 39 6 -4 5 3 -1 15 -7 12
-8 27 -4 34 12 18 11 30 -5 49 -8 9 -11 22 -7 27 3 6 1 11 -6 11 -8 0 -8 4 1
15 10 12 10 15 0 15 -10 0 -10 3 -1 14 9 11 9 15 -1 18 -10 4 -10 8 1 22 12
14 12 16 -3 10 -12 -5 -15 -2 -10 10 3 9 2 22 -3 29 -11 14 -11 27 0 45 5 7 3
12 -4 12 -8 0 -7 5 2 17 10 11 10 14 2 9 -10 -5 -13 3 -13 28 0 20 -5 36 -11
36 -8 0 -8 4 0 14 7 8 8 17 3 20 -5 3 -12 17 -14 31 -4 18 -1 25 11 25 12 0
13 2 3 8 -14 9 -13 60 1 79 6 9 5 13 -4 13 -9 0 -10 3 -3 8 6 4 10 17 9 29 -1
16 2 20 10 13 8 -7 11 -3 9 13 -1 12 5 32 12 44 8 12 14 29 14 38 0 8 5 15 10
15 6 0 10 6 10 14 0 8 6 16 13 19 9 3 8 8 -3 22 -9 11 -10 16 -2 11 8 -5 12 1
12 19 0 15 4 24 10 20 6 -3 10 1 10 9 0 9 6 16 13 16 8 0 27 11 42 24 16 14
32 23 35 21 4 -2 16 3 26 13 10 9 28 17 39 17 11 -1 27 7 36 16 8 10 27 21 42
24 15 4 27 11 27 17 0 5 5 6 11 3 5 -4 18 2 27 13 9 10 23 17 31 14 8 -3 11 0
7 7 -6 10 6 15 27 12 4 0 7 4 7 9 0 6 9 10 20 10 11 0 20 4 20 10 0 5 6 9 13
7 6 -1 11 3 10 10 -2 7 3 10 11 7 7 -3 19 2 26 10 7 9 16 13 21 10 5 -3 9 0 9
6 0 6 3 9 8 7 4 -3 13 1 20 9 7 8 9 14 5 14 -4 0 8 8 27 19 19 10 38 17 43 14
4 -2 7 1 7 6 0 6 7 11 15 11 8 0 15 5 15 12 0 6 3 8 6 5 4 -4 19 2 33 12 26
18 48 28 64 29 5 0 17 11 28 23 10 12 19 19 19 14 0 -4 8 -1 17 6 15 12 16 12
8 -1 -5 -8 7 0 25 18 19 17 40 32 47 32 7 0 13 4 13 9 0 5 11 12 25 15 14 4
25 11 25 17 0 6 5 7 10 4 6 -3 10 0 10 7 0 10 2 10 9 -1 6 -9 11 -10 15 -2 4
6 12 8 18 5 6 -4 8 -2 4 4 -6 11 46 42 72 42 8 0 12 6 9 14 -4 10 -1 13 8 9 8
-3 18 2 21 11 3 9 10 14 14 11 4 -3 18 6 31 19 17 18 27 22 36 14 9 -7 13 -7
13 0 0 9 65 55 83 58 4 1 10 3 15 4 4 1 11 2 15 1 5 -1 6 3 2 9 -3 5 0 11 7
11 7 1 20 2 28 3 8 0 14 7 12 15 -2 8 3 11 13 8 8 -4 15 -2 15 3 0 6 6 10 13
10 7 0 20 9 30 20 9 11 31 23 47 27 17 3 30 10 30 15 0 5 5 6 10 3 6 -3 10 -1
10 4 0 6 7 11 15 11 9 0 18 7 21 15 4 8 10 12 15 9 5 -3 9 0 9 5 0 6 9 11 20
11 11 0 20 6 20 13 0 9 2 9 9 -1 6 -10 10 -8 14 8 3 12 11 20 19 18 7 -3 18 2
23 9 6 8 18 15 28 17 9 1 23 11 31 22 8 10 23 19 33 19 10 0 17 6 16 12 -2 7
0 12 5 11 14 -3 61 25 56 33 -3 5 2 6 10 3 9 -3 16 -1 16 5 0 6 7 11 16 11 8
0 12 5 9 10 -3 6 1 10 9 10 9 0 16 4 16 10 0 5 7 6 17 3 11 -4 14 -3 9 5 -4 7
3 14 19 18 14 3 25 10 25 16 0 5 5 6 10 3 6 -3 10 1 10 9 0 9 3 15 8 15 18 -3
33 2 28 9 -2 4 5 9 17 9 12 1 23 7 25 13 2 5 8 8 13 4 5 -3 9 -1 9 4 0 10 50
37 63 33 5 -1 6 3 2 8 -3 6 5 15 17 22 13 7 25 15 28 20 3 4 12 9 20 11 8 2
23 12 33 22 9 10 17 15 17 11 0 -4 12 5 26 21 15 16 23 23 20 17 -12 -22 5
-14 30 12 13 14 28 25 33 25 6 0 15 8 20 17 6 10 11 14 11 9 0 -5 9 1 20 14
11 13 20 19 20 14 0 -5 6 -2 13 7 7 9 22 19 35 23 12 4 20 11 18 15 -3 4 1 8
9 9 8 1 22 3 30 4 10 1 12 5 5 13 -6 7 -2 11 13 12 12 1 34 16 49 34 16 17 28
28 28 23 0 -4 7 1 15 12 8 10 15 15 15 10 0 -5 8 0 18 11 9 11 23 18 30 16 6
-3 12 1 12 7 0 14 26 41 32 34 3 -2 13 7 22 21 9 14 21 23 25 21 5 -3 17 5 27
19 10 13 21 22 26 19 8 -5 12 11 9 30 -1 5 5 6 14 3 8 -4 15 -2 15 3 0 6 5 10
11 10 6 0 17 7 26 15 8 8 19 12 25 9 6 -4 9 -3 6 2 -8 12 17 35 28 26 4 -4 4
1 1 10 -4 12 -2 15 9 11 8 -3 14 1 14 8 0 14 62 69 76 69 4 0 33 27 65 59 31
33 59 57 62 54 3 -2 8 5 12 16 3 12 13 21 21 21 8 0 14 5 14 10 0 13 57 70 64
63 2 -3 9 5 16 16 6 12 15 19 21 16 5 -4 9 -2 9 4 0 12 58 71 71 71 5 0 8 6 6
13 -1 6 3 11 10 10 6 -2 15 6 18 17 4 11 11 20 16 20 6 0 7 4 4 10 -3 6 1 7 9
4 9 -4 16 -1 16 6 0 14 57 70 72 70 5 0 6 5 3 10 -3 6 -1 10 4 10 6 0 11 7 11
16 0 8 4 13 9 10 5 -3 17 7 26 22 10 15 29 37 43 50 14 12 22 22 18 22 -4 0 9
16 29 35 20 20 33 40 29 47 -4 7 -3 8 4 4 11 -7 38 32 34 48 -2 5 4 6 13 3 9
-4 15 -1 15 7 0 7 20 33 45 58 25 25 45 50 45 56 0 5 11 17 24 28 14 10 23 21
21 24 -3 4 7 22 20 40 13 18 22 38 18 43 -3 6 -1 7 5 3 6 -3 13 3 17 14 4 11
11 17 17 14 8 -5 9 -1 5 10 -4 10 -3 15 3 11 6 -3 10 -1 10 5 0 6 4 9 9 6 5
-3 11 4 14 15 4 13 10 18 18 13 7 -4 10 -3 5 4 -3 6 5 27 19 48 14 20 25 41
25 47 0 6 3 7 7 4 10 -11 32 13 26 29 -3 8 0 14 7 14 6 0 8 5 5 10 -3 6 -2 10
3 10 8 0 45 66 46 83 1 4 6 11 12 15 6 4 10 15 8 25 -1 9 2 15 7 11 5 -3 9 2
9 10 0 9 7 16 16 16 8 0 12 5 9 10 -3 6 1 13 9 16 9 3 13 10 10 15 -3 5 0 9 5
9 6 0 11 8 11 18 0 10 6 24 13 31 10 11 9 13 -3 7 -8 -4 -4 2 9 13 13 12 20
21 16 21 -5 0 2 8 13 19 24 20 30 37 10 25 -7 -4 -5 2 5 13 10 11 17 24 16 29
-4 16 13 44 22 38 5 -3 9 2 9 10 0 9 4 16 8 16 5 0 9 6 10 13 6 49 10 60 23
68 8 5 10 9 6 9 -5 0 -1 7 8 16 9 9 14 23 11 30 -3 8 0 13 6 11 10 -2 15 9 20
48 2 11 8 23 13 27 6 5 5 8 -3 8 -10 0 -10 3 0 14 7 8 16 12 20 9 4 -2 5 3 2
11 -4 10 -1 16 7 16 12 0 12 2 1 9 -11 6 -10 10 4 15 16 6 16 8 4 16 -8 6 -10
10 -4 10 7 0 15 7 18 16 4 10 2 13 -7 8 -6 -4 -3 3 8 16 12 14 14 20 5 15 -12
-6 -12 -5 -3 5 6 7 9 19 6 26 -3 8 -1 14 4 14 5 0 10 6 11 13 1 6 3 23 4 37 2
14 9 31 16 38 7 8 10 18 6 23 -3 5 2 12 11 15 13 6 14 8 3 15 -10 7 -10 9 0 9
6 0 12 11 12 24 0 14 5 28 10 31 6 4 8 16 4 27 -4 15 -3 18 7 13 9 -6 11 -4 6
8 -3 9 -2 19 3 22 6 4 6 15 -2 28 -10 20 -10 21 6 8 15 -13 16 -12 7 13 -8 19
-7 26 1 26 9 0 9 3 0 12 -9 9 -7 15 6 25 12 10 12 12 2 8 -8 -4 -6 1 4 9 11 9
16 16 12 16 -5 0 -3 7 4 15 7 8 8 15 3 15 -5 0 -10 7 -10 15 0 8 5 15 10 15 5
0 4 7 -3 15 -9 10 -9 15 -1 15 6 0 11 11 11 25 0 14 6 25 13 25 8 0 9 3 1 8
-12 7 -12 47 -1 58 12 12 8 26 -5 18 -10 -6 -10 -4 0 7 6 7 12 26 12 41 0 16
6 28 13 28 9 0 8 3 -2 9 -11 7 -11 10 0 17 8 5 15 17 15 27 2 15 -1 16 -14 5
-14 -12 -14 -10 -3 10 7 13 10 30 7 38 -3 8 0 14 7 14 7 0 8 3 2 8 -11 8 -15
113 -4 106 12 -7 18 23 7 34 -6 6 -6 12 1 16 6 4 11 12 11 17 0 6 -6 7 -12 3
-10 -6 -10 -5 -2 7 15 18 15 69 0 69 -7 0 -6 3 2 8 9 6 12 30 9 80 -1 39 0 69
4 66 15 -9 15 22 0 46 -11 17 -12 22 -2 16 10 -7 12 -3 6 14 -5 17 -4 21 5 15
9 -6 11 -4 4 6 -12 20 -14 38 -3 45 5 3 6 11 2 17 -12 19 -12 37 -2 37 6 0 7
5 4 10 -4 6 -12 7 -18 3 -7 -4 -6 1 2 10 8 10 11 20 8 24 -4 3 -2 12 4 20 9
10 7 13 -7 13 -11 0 -15 3 -9 8 6 4 10 14 10 22 0 8 4 18 10 22 6 5 5 8 -3 8
-12 0 -10 45 2 58 3 3 1 12 -6 19 -9 11 -9 17 3 24 11 7 11 9 0 9 -10 0 -11 3
-2 14 8 10 9 16 1 21 -7 4 -7 12 0 25 7 13 7 21 0 25 -8 5 -7 12 2 23 7 9 8
13 2 9 -8 -4 -11 2 -10 18 0 14 6 25 11 25 6 0 4 4 -4 9 -12 7 -12 13 -3 24 7
7 9 17 5 21 -12 12 -11 76 1 69 6 -4 5 1 -3 10 -7 9 -10 17 -6 17 4 0 2 7 -5
15 -11 13 -10 14 2 10 9 -4 15 0 15 9 0 8 -5 12 -10 9 -7 -4 -7 1 -3 13 5 10
9 24 9 29 0 6 40 11 96 11 60 1 97 6 99 13 2 6 8 9 13 5 5 -3 9 0 9 6 0 6 4 9
9 6 15 -9 42 5 34 18 -4 6 0 5 9 -2 14 -11 18 -10 27 5 6 10 11 14 11 8 0 -5
15 6 33 25 18 19 52 52 74 72 23 20 39 39 36 41 -2 3 5 8 16 12 12 3 21 11 21
16 0 5 16 24 35 43 19 18 31 36 28 40 -4 3 -1 6 5 6 7 0 12 7 12 16 0 8 5 12
10 9 9 -5 15 15 11 38 0 4 4 7 11 7 6 0 8 3 5 7 -4 3 1 15 10 26 13 15 14 18
3 12 -11 -6 -10 -3 3 12 9 11 14 23 10 26 -3 4 -1 7 5 7 6 0 9 7 6 15 -4 8 -2
15 3 15 10 0 11 7 14 55 1 13 5 23 9 20 14 -8 29 20 26 48 -2 15 0 30 5 33 4
2 7 20 5 39 -1 20 2 31 8 28 5 -4 7 1 3 10 -4 10 -1 17 6 17 7 0 8 3 2 8 -13
9 -18 32 -7 32 10 0 9 30 -2 48 -4 7 -2 12 5 12 8 0 8 4 -1 15 -9 11 -9 15 -1
15 9 0 9 5 1 20 -6 11 -7 20 -1 20 12 0 9 33 -4 42 -6 5 -5 8 3 8 9 0 10 5 3
18 -6 11 -6 24 0 35 7 12 6 17 -2 17 -8 0 -9 4 0 13 8 10 7 17 -1 25 -9 9 -9
12 1 12 9 0 10 4 5 12 -11 15 -11 38 -1 55 4 6 3 15 -3 18 -8 5 -7 12 2 23 11
13 11 14 -1 8 -10 -7 -12 -3 -6 14 5 15 4 20 -4 16 -7 -4 -11 1 -11 13 0 15 5
19 18 15 14 -5 15 -4 2 5 -8 6 -11 11 -6 11 5 0 3 7 -4 15 -7 8 -15 13 -19 11
-3 -2 -5 16 -4 40 0 24 -2 44 -6 44 -7 0 -10 22 -12 87 0 29 -6 43 -17 48 -15
6 -15 8 2 21 16 11 17 14 4 14 -12 0 -15 6 -10 22 4 16 2 19 -9 13 -11 -6 -12
-5 -2 5 10 11 9 16 -5 26 -14 11 -14 13 -2 14 12 0 10 4 -4 15 -11 8 -14 15
-8 15 14 0 16 27 3 32 -5 2 -11 19 -12 38 -2 19 -8 38 -14 42 -6 5 -5 8 3 8 9
0 10 5 4 18 -5 9 -8 28 -8 42 1 14 -3 28 -9 32 -7 5 -6 8 1 8 6 0 9 18 8 45
-2 32 1 43 9 38 7 -4 6 0 -2 10 -11 14 -11 18 3 23 9 3 16 11 15 18 -2 19 13
56 23 56 6 0 8 7 5 15 -4 8 -2 17 4 21 5 3 7 15 3 26 -4 14 -2 18 5 14 7 -4
11 1 11 13 0 11 6 26 13 33 11 12 17 31 20 71 1 9 5 17 10 17 4 0 5 5 2 10 -3
6 -1 10 5 10 6 0 8 5 5 10 -3 6 -1 10 5 10 6 0 9 4 6 8 -5 9 12 64 32 100 7
12 11 22 8 22 -3 0 1 15 9 34 8 18 11 36 8 40 -4 3 -1 6 6 6 8 0 10 7 6 20 -4
14 -2 20 7 18 7 -2 12 5 12 15 -1 9 2 17 8 17 5 0 6 5 3 10 -9 15 5 51 17 44
7 -5 8 -2 3 6 -4 7 -2 16 6 21 12 7 12 9 0 9 -11 0 -11 3 0 17 8 9 14 28 15
43 0 14 8 37 17 50 9 14 17 30 17 38 0 7 5 10 11 6 8 -5 9 -2 1 12 -8 14 -7
23 5 36 9 10 17 34 19 54 2 21 8 42 14 48 5 5 10 20 10 32 0 13 7 30 16 38 12
12 12 16 2 16 -9 0 -9 3 -2 8 6 4 11 14 12 22 2 29 8 48 21 64 7 9 10 16 5 16
-4 0 -3 5 4 12 16 16 15 31 0 22 -7 -4 -5 2 5 14 11 11 16 25 13 31 -4 5 -2
12 4 16 5 3 10 11 10 16 0 6 -4 8 -9 5 -5 -4 -4 5 2 19 7 14 15 25 19 25 4 0
5 7 2 15 -4 8 -1 15 7 15 7 0 10 3 7 6 -4 3 -2 20 4 37 5 18 12 48 15 67 3 19
10 38 15 41 6 4 7 12 4 18 -4 6 -3 11 3 11 5 0 8 8 6 18 -1 9 2 22 7 29 5 7 7
17 3 23 -3 5 -1 10 5 10 6 0 8 5 5 10 -3 6 -2 10 3 10 5 0 7 13 4 30 -2 16 0
30 5 30 8 0 10 9 16 65 1 14 6 25 11 25 4 0 6 6 3 14 -3 8 -3 17 1 21 4 4 7
10 7 13 1 4 7 30 14 58 7 29 14 60 16 70 2 11 4 21 5 24 1 3 2 8 1 13 0 4 3 7
8 7 5 0 9 10 9 23 0 12 3 36 7 52 3 17 7 41 9 55 2 14 7 33 11 44 5 10 8 31 9
47 1 16 5 29 10 29 4 0 6 7 2 15 -3 8 2 21 10 30 9 8 11 15 5 15 -7 0 -7 8 -1
25 7 18 6 25 -3 25 -8 1 -7 5 3 13 9 7 17 30 19 51 1 22 6 49 11 60 4 12 6 29
5 39 -2 9 0 17 5 17 5 0 7 11 5 25 -1 14 1 25 4 25 4 0 7 17 8 37 1 21 7 57
13 81 6 24 8 48 4 53 -3 5 -1 15 4 22 6 7 13 44 17 82 11 127 14 147 24 159 6
7 6 17 1 26 -5 8 -5 21 -1 29 5 9 7 24 6 34 -2 9 0 17 4 17 4 0 7 15 6 33 -1
17 1 39 6 48 5 10 3 21 -4 29 -9 10 -9 11 2 5 11 -6 12 -2 7 20 -5 19 -3 31 6
36 7 5 8 9 3 9 -6 0 -9 17 -7 38 7 92 6 742 -2 742 -5 0 -3 6 3 13 6 8 9 16 6
18 -2 3 -5 21 -7 42 -1 20 -6 37 -10 37 -5 0 -4 9 2 20 8 15 8 20 -1 20 -6 0
-9 6 -6 14 3 7 0 19 -6 26 -9 10 -9 11 1 6 6 -4 12 -2 12 3 0 6 -5 11 -11 11
-5 0 -7 5 -4 10 3 6 1 10 -5 10 -6 0 -8 5 -5 10 4 6 1 18 -7 27 -11 14 -11 16
1 8 11 -6 12 -5 5 6 -4 8 -10 23 -11 33 -2 11 -9 26 -16 35 -10 12 -9 13 3 6
12 -7 13 -6 3 7 -7 8 -10 18 -6 21 3 4 2 7 -3 7 -13 0 -38 86 -28 101 4 7 3 9
-3 6 -9 -6 -34 37 -39 68 -1 6 -10 28 -20 50 -10 22 -17 44 -16 48 2 5 -2 6
-7 3 -9 -6 -21 14 -27 44 -2 8 -12 23 -24 32 -11 9 -20 20 -20 23 2 12 -166
185 -180 185 -6 0 -10 7 -10 16 0 8 -4 13 -9 9 -5 -3 -12 4 -16 15 -3 11 -11
20 -16 20 -5 0 -19 9 -31 20 -12 11 -30 20 -39 20 -10 0 -19 5 -21 11 -2 6
-13 13 -23 14 -35 4 -65 17 -65 28 0 6 -3 8 -6 4 -11 -11 -34 21 -34 48 0 15
-4 24 -10 20 -5 -3 -10 -1 -10 5 0 6 -6 10 -12 9 -31 -4 -78 28 -109 73 -40
60 -41 62 -39 168 1 106 3 130 11 130 11 0 41 128 33 141 -4 8 -3 9 4 5 7 -4
13 0 14 11 2 24 4 35 11 53 13 35 56 278 53 307 -1 18 1 34 5 35 5 2 10 50 13
106 2 57 7 106 10 110 3 3 0 12 -7 20 -9 13 -9 14 1 8 9 -5 12 13 14 81 1 48
2 124 3 168 1 44 5 97 9 118 4 25 3 36 -4 32 -5 -3 -10 -1 -10 4 0 6 4 11 10
11 17 0 2 1343 -16 1371 -3 5 -7 68 -10 141 -2 73 -6 151 -8 173 -2 22 -6 96
-9 165 -9 190 -64 840 -82 960 -7 51 -14 107 -20 155 -12 105 -58 386 -86 530
-65 328 -185 722 -333 1093 -42 104 -76 195 -76 201 0 6 -5 11 -11 11 -5 0 -7
5 -4 10 3 6 1 10 -4 10 -6 0 -11 6 -11 13 0 11 -159 346 -170 357 -3 3 -23 41
-45 85 -22 44 -43 82 -48 83 -4 2 -5 8 -1 13 3 5 1 9 -4 9 -5 0 -15 15 -23 33
-7 17 -16 34 -19 37 -4 3 -17 25 -31 50 -13 25 -30 51 -36 58 -7 7 -13 20 -13
28 0 8 -7 17 -15 20 -8 4 -15 12 -15 20 0 8 -5 14 -10 14 -6 0 -9 3 -8 8 3 8
-70 124 -84 133 -5 3 -8 8 -7 10 4 5 -61 102 -75 111 -6 4 -7 8 -3 8 4 0 3 6
-3 13 -28 32 -110 153 -110 162 0 6 -9 16 -20 23 -11 7 -20 19 -20 27 0 8 -4
15 -10 15 -5 0 -10 6 -10 14 0 8 -3 16 -7 18 -13 5 -73 86 -73 97 0 6 -9 16
-20 23 -11 7 -20 19 -20 26 0 6 -9 20 -20 29 -11 10 -20 21 -20 26 0 5 -6 14
-12 21 -7 7 -28 31 -46 54 -56 69 -72 85 -72 76 0 -5 -8 3 -18 19 -10 15 -22
24 -25 20 -4 -3 -7 1 -7 10 0 10 -7 17 -16 17 -8 0 -13 4 -10 8 3 5 -6 15 -19
22 -14 7 -27 22 -31 32 -3 10 -8 17 -12 15 -10 -5 -42 30 -34 37 3 3 1 6 -5 6
-16 0 -73 56 -73 71 0 7 -3 10 -6 7 -7 -8 -60 42 -56 54 1 5 -2 7 -7 4 -5 -3
-11 1 -15 9 -3 8 -12 15 -21 15 -8 0 -14 3 -13 8 2 4 -14 24 -34 45 -21 21
-38 34 -38 30 0 -4 -6 3 -13 16 -6 13 -16 24 -22 24 -16 1 -33 21 -27 31 3 5
0 6 -6 2 -6 -3 -13 -2 -17 4 -4 6 -11 8 -16 5 -5 -4 -9 -3 -9 2 0 4 -14 14
-30 21 -17 8 -28 18 -24 23 3 5 -1 9 -8 9 -17 1 -58 35 -58 49 0 15 -75 91
-90 91 -6 0 -8 5 -4 12 5 8 2 9 -9 5 -10 -3 -17 -2 -17 3 0 6 -3 10 -7 9 -16
-2 -53 14 -53 22 0 5 -7 9 -16 9 -8 0 -13 4 -10 8 7 11 -40 53 -49 44 -3 -4
-3 1 1 11 4 12 1 17 -10 17 -9 0 -16 4 -16 10 0 5 -13 22 -28 38 -15 16 -26
34 -24 40 2 7 -2 12 -10 12 -16 0 -36 43 -41 90 -2 20 -7 41 -11 48 -4 7 -5
16 -1 21 3 5 1 12 -5 16 -6 4 -8 10 -5 15 3 5 1 11 -4 15 -6 3 -8 12 -4 20 3
8 1 15 -5 15 -6 0 -8 9 -5 20 3 11 0 20 -6 20 -6 0 -10 3 -10 8 1 4 1 9 -1 12
-1 3 -3 16 -6 29 -2 14 -9 30 -14 36 -5 7 -7 15 -3 18 3 4 2 7 -3 7 -5 0 -10
10 -11 22 -1 11 -6 24 -10 27 -4 3 -9 11 -10 16 -5 26 -29 81 -38 87 -5 4 -7
8 -2 8 7 0 -40 100 -52 110 -3 3 -7 12 -9 20 -2 8 -8 17 -13 18 -5 2 -9 12 -9
22 0 9 -7 23 -15 30 -9 7 -13 15 -11 18 3 2 -8 24 -24 48 -17 23 -30 47 -30
53 0 6 -4 11 -8 11 -5 0 -17 18 -27 40 -10 22 -22 40 -26 40 -5 0 -11 11 -15
25 -3 14 -10 23 -14 20 -5 -3 -12 4 -15 16 -4 12 -31 46 -61 76 -30 31 -54 59
-54 65 0 5 -4 6 -10 3 -5 -3 -10 -2 -10 3 0 12 -179 192 -191 192 -5 0 -9 7
-9 17 0 9 -3 14 -6 11 -3 -3 -23 12 -44 33 -21 21 -43 39 -49 39 -5 0 -13 9
-16 20 -3 11 -12 20 -18 20 -7 0 -19 9 -27 19 -7 11 -17 18 -22 15 -4 -3 -11
2 -14 10 -3 9 -15 16 -25 16 -11 0 -19 7 -19 17 0 9 -3 14 -6 10 -4 -3 -15 4
-25 16 -10 12 -18 18 -19 14 0 -4 -11 4 -25 18 -14 14 -33 25 -41 25 -8 0 -13
4 -10 9 5 7 -17 19 -46 25 -4 0 -13 7 -19 14 -7 6 -21 12 -31 12 -10 0 -18 5
-18 12 0 6 -3 9 -6 5 -4 -3 -13 0 -21 8 -8 8 -23 15 -34 15 -10 0 -19 5 -19
10 0 6 -11 10 -24 10 -14 0 -28 5 -31 10 -4 6 -14 10 -23 9 -10 -1 -24 1 -32
4 -25 12 -80 15 -86 6 -3 -5 -13 -5 -22 0 -11 6 -24 6 -35 0 -10 -6 -27 -7
-40 -4 -22 7 -22 7 -2 -8 20 -16 20 -16 -2 -10 -13 3 -23 10 -23 17 0 6 -5 4
-10 -4 -8 -12 -10 -12 -10 -1 0 9 -10 12 -34 9 -19 -2 -33 -1 -31 2 4 6 -47
31 -125 61 -19 7 -76 36 -127 65 -50 29 -94 49 -97 46 -3 -3 -6 0 -6 6 0 7 -7
12 -15 12 -8 0 -15 5 -15 11 0 6 -7 9 -15 5 -8 -3 -15 -1 -15 5 0 6 -4 7 -10
4 -5 -3 -10 -1 -10 4 0 6 -3 10 -7 9 -16 -5 -89 31 -115 57 -15 15 -31 24 -36
21 -5 -3 -17 3 -27 14 -10 11 -22 17 -26 14 -5 -3 -9 -1 -9 4 0 6 -12 15 -27
21 -27 10 -62 30 -73 41 -16 16 -68 38 -75 32 -5 -4 -5 -1 -1 6 4 7 1 12 -8
12 -9 0 -16 5 -16 10 0 6 -7 10 -15 10 -8 0 -15 5 -15 11 0 5 -5 7 -10 4 -6
-3 -17 0 -25 7 -30 27 -44 38 -50 38 -3 0 -3 -6 1 -12 4 -7 -4 -4 -17 8 -13
12 -39 27 -56 35 -18 8 -33 17 -33 21 0 5 -7 8 -15 8 -8 0 -15 5 -15 10 0 6
-9 10 -19 10 -11 0 -23 5 -26 10 -4 6 -11 8 -16 5 -5 -4 -9 -1 -9 5 0 6 -4 8
-10 5 -5 -3 -10 -1 -10 5 0 6 -4 9 -9 6 -5 -3 -11 1 -15 9 -3 8 -16 15 -29 15
-13 0 -33 9 -45 20 -12 12 -22 18 -22 14 0 -3 -6 -1 -13 5 -8 6 -17 8 -20 4
-4 -3 -7 -2 -7 3 0 5 -12 11 -27 12 -16 1 -29 7 -31 12 -2 6 -12 10 -23 10
-10 0 -19 4 -19 8 0 4 -10 8 -22 9 -11 1 -24 6 -27 10 -7 9 -17 12 -61 15 -18
1 -29 7 -26 14 3 7 -3 10 -15 7 -11 -3 -19 0 -19 7 0 9 -4 9 -17 -1 -13 -11
-15 -11 -9 -1 6 10 1 13 -20 12 -16 -1 -31 -1 -34 0 -3 1 -18 3 -35 4 -40 3
-66 16 -59 28 3 5 -2 9 -12 8 -11 -1 -21 -1 -24 0 -3 1 -14 3 -25 5 -11 1 -51
14 -90 28 -38 14 -137 46 -220 72 -143 45 -166 53 -217 74 -13 5 -48 17 -78
27 -30 9 -59 20 -65 24 -12 9 -67 24 -77 22 -5 -1 -8 2 -8 6 0 5 -6 9 -12 9
-7 0 -44 12 -83 27 -130 51 -220 84 -260 97 -22 7 -44 17 -49 21 -6 4 -17 8
-25 8 -9 0 -29 7 -45 15 -15 8 -35 15 -43 15 -8 0 -29 6 -46 14 -18 8 -43 17
-57 19 -14 3 -68 17 -120 31 -52 14 -135 33 -185 42 -49 8 -95 20 -102 26 -7
6 -13 8 -13 6 0 -3 -19 -1 -42 4 -24 5 -67 11 -96 13 -28 2 -58 7 -65 12 -6 4
-28 8 -47 9 -19 0 -51 4 -70 7 -19 4 -57 9 -85 12 -27 4 -81 10 -120 16 -38 5
-86 11 -105 13 -132 17 -769 42 -782 31z m4402 -28480 c0 -8 -2 -15 -4 -15 -2
0 -6 7 -10 15 -3 8 -1 15 4 15 6 0 10 -7 10 -15z"/>
<path d="M7142 11273 c0 -28 2 -33 8 -18 6 17 3 55 -5 55 -2 0 -3 -17 -3 -37z"/>
<path d="M19380 2056 c0 -2 8 -10 18 -17 15 -13 16 -12 3 4 -13 16 -21 21 -21
13z"/>
</g>
</svg>
